<svg width="64" height="64" viewBox="0 0 64 64" fill="none" xmlns="http://www.w3.org/2000/svg">
<circle cx="32" cy="12" r="4" fill="#05995E" stroke="#272833" stroke-width="2"/>
<path d="M28 19H36C37.6569 19 39 20.3431 39 22V25H25V22C25 20.3431 26.3431 19 28 19Z" fill="#05995E" stroke="#272833" stroke-width="2"/>
<circle cx="52" cy="43" r="4" fill="#05995E" stroke="#272833" stroke-width="2"/>
<path d="M48 50H56C57.6569 50 59 51.3431 59 53V56H45V53C45 51.3431 46.3431 50 48 50Z" fill="#05995E" stroke="#272833" stroke-width="2"/>
<circle cx="12" cy="43" r="4" fill="#05995E" stroke="#272833" stroke-width="2"/>
<path d="M8 50H16C17.6569 50 19 51.3431 19 53V56H5V53C5 51.3431 6.34315 50 8 50Z" fill="#05995E" stroke="#272833" stroke-width="2"/>
<path d="M32 39L32 29" stroke="#272833" stroke-width="2"/>
<path d="M32 39L40.6603 44" stroke="#272833" stroke-width="2"/>
<path d="M31.6602 39L23 44" stroke="#272833" stroke-width="2"/>
</svg>
