<svg width="64" height="64" viewBox="0 0 64 64" fill="none" xmlns="http://www.w3.org/2000/svg">
<mask id="path-1-inside-1" fill="white">
<path fill-rule="evenodd" clip-rule="evenodd" d="M6 2C3.23858 2 1 4.23857 1 7V26.5354C1 29.2968 3.23858 31.5354 6 31.5354H9.75V37.9299L17.9999 31.5354H36C38.7614 31.5354 41 29.2968 41 26.5354V7C41 4.23858 38.7614 2 36 2H6Z"/>
</mask>
<path fill-rule="evenodd" clip-rule="evenodd" d="M6 2C3.23858 2 1 4.23857 1 7V26.5354C1 29.2968 3.23858 31.5354 6 31.5354H9.75V37.9299L17.9999 31.5354H36C38.7614 31.5354 41 29.2968 41 26.5354V7C41 4.23858 38.7614 2 36 2H6Z" fill="white"/>
<path d="M9.75 31.5354H11.75V29.5354H9.75V31.5354ZM9.75 37.9299H7.75V42.0105L10.9752 39.5106L9.75 37.9299ZM17.9999 31.5354V29.5354H17.3155L16.7746 29.9546L17.9999 31.5354ZM3 7C3 5.34314 4.34314 4 6 4V0C2.13401 0 -1 3.134 -1 7H3ZM3 26.5354V7H-1V26.5354H3ZM6 29.5354C4.34315 29.5354 3 28.1922 3 26.5354H-1C-1 30.4014 2.13401 33.5354 6 33.5354V29.5354ZM9.75 29.5354H6V33.5354H9.75V29.5354ZM11.75 37.9299V31.5354H7.75V37.9299H11.75ZM16.7746 29.9546L8.52476 36.3491L10.9752 39.5106L19.2251 33.1161L16.7746 29.9546ZM36 29.5354H17.9999V33.5354H36V29.5354ZM39 26.5354C39 28.1922 37.6569 29.5354 36 29.5354V33.5354C39.866 33.5354 43 30.4014 43 26.5354H39ZM39 7V26.5354H43V7H39ZM36 4C37.6569 4 39 5.34315 39 7H43C43 3.13401 39.866 0 36 0V4ZM6 4H36V0H6V4Z" fill="#272833" mask="url(#path-1-inside-1)"/>
<mask id="path-3-inside-2" fill="white">
<path fill-rule="evenodd" clip-rule="evenodd" d="M58 62.9282C60.7614 62.9282 63 60.6896 63 57.9282L63 38.3928C63 35.6314 60.7614 33.3928 58 33.3928H54.25V26.9984L46.0001 33.3928L28 33.3928C25.2386 33.3928 23 35.6314 23 38.3928L23 57.9282C23 60.6896 25.2386 62.9282 28 62.9282L58 62.9282Z"/>
</mask>
<path fill-rule="evenodd" clip-rule="evenodd" d="M58 62.9282C60.7614 62.9282 63 60.6896 63 57.9282L63 38.3928C63 35.6314 60.7614 33.3928 58 33.3928H54.25V26.9984L46.0001 33.3928L28 33.3928C25.2386 33.3928 23 35.6314 23 38.3928L23 57.9282C23 60.6896 25.2386 62.9282 28 62.9282L58 62.9282Z" fill="white"/>
<path d="M54.25 33.3928H52.25V35.3928H54.25V33.3928ZM54.25 26.9984H56.25V22.9177L53.0248 25.4176L54.25 26.9984ZM46.0001 33.3928V35.3928H46.6845L47.2254 34.9736L46.0001 33.3928ZM61 57.9282C61 59.5851 59.6569 60.9282 58 60.9282V64.9282C61.866 64.9282 65 61.7942 65 57.9282H61ZM61 38.3928L61 57.9282H65V38.3928H61ZM58 35.3928C59.6569 35.3928 61 36.736 61 38.3928H65C65 34.5268 61.866 31.3928 58 31.3928V35.3928ZM54.25 35.3928H58V31.3928H54.25V35.3928ZM52.25 26.9984V33.3928H56.25V26.9984H52.25ZM47.2254 34.9736L55.4752 28.5791L53.0248 25.4176L44.7749 31.8121L47.2254 34.9736ZM28 35.3928L46.0001 35.3928L46.0001 31.3928L28 31.3928V35.3928ZM25 38.3928C25 36.736 26.3431 35.3928 28 35.3928V31.3928C24.134 31.3928 21 34.5268 21 38.3928H25ZM25 57.9282L25 38.3928H21L21 57.9282H25ZM28 60.9282C26.3431 60.9282 25 59.5851 25 57.9282H21C21 61.7942 24.134 64.9282 28 64.9282V60.9282ZM58 60.9282L28 60.9282V64.9282H58V60.9282Z" fill="#272833" mask="url(#path-3-inside-2)"/>
<rect x="40" y="39" width="6" height="18" rx="3" stroke="#272833" stroke-width="2"/>
<rect x="37" y="47" width="12" height="10" rx="1" fill="#05995E" stroke="#272833" stroke-width="2"/>
<circle cx="43" cy="51" r="2" fill="#272833"/>
<line x1="43" y1="52" x2="43" y2="54" stroke="#272833" stroke-width="2" stroke-linecap="round"/>
<rect x="18" y="8" width="6" height="18" rx="3" stroke="#272833" stroke-width="2"/>
<rect x="15" y="16" width="12" height="10" rx="1" fill="#05995E" stroke="#272833" stroke-width="2"/>
<circle cx="21" cy="20" r="2" fill="#272833"/>
<line x1="21" y1="21" x2="21" y2="23" stroke="#272833" stroke-width="2" stroke-linecap="round"/>
</svg>
