<?xml version="1.0" standalone="no"?>
<!DOCTYPE svg PUBLIC "-//W3C//DTD SVG 20010904//EN"
 "http://www.w3.org/TR/2001/REC-SVG-20010904/DTD/svg10.dtd">
<svg version="1.0" xmlns="http://www.w3.org/2000/svg"
 width="100.000000pt" height="100.000000pt" viewBox="0 0 100.000000 100.000000"
 preserveAspectRatio="xMidYMid meet">
<metadata>
Created by potrace 1.14, written by Peter Selinger 2001-2017
</metadata>
<g transform="translate(0.000000,100.000000) scale(0.100000,-0.100000)"
fill="#000000" stroke="none">
<path d="M55 888 c-54 -32 -54 -28 -55 -380 0 -219 3 -334 11 -350 25 -56 39
-58 389 -58 335 0 350 2 380 44 18 26 17 18 19 126 l1 90 43 -27 c23 -15 44
-30 47 -33 3 -3 28 -20 55 -37 l50 -32 3 266 c1 146 1 268 -2 270 -2 2 -46
-23 -97 -55 l-94 -59 -5 91 c-7 105 -11 116 -49 139 -26 15 -66 17 -353 17
-225 -1 -329 -4 -343 -12z m645 -388 l0 -300 -300 0 -300 0 0 300 0 300 300 0
300 0 0 -300z"/>
<path d="M237 668 c-46 -16 -49 -85 -4 -105 28 -13 74 2 82 27 17 52 -26 95
-78 78z"/>
<path d="M524 656 c-22 -18 -25 -27 -20 -53 9 -42 49 -60 83 -38 47 31 43 86
-7 103 -26 9 -34 8 -56 -12z"/>
<path d="M167 500 c-28 -40 7 -127 68 -168 152 -104 371 -40 409 120 5 20 1
33 -14 48 -40 40 -72 20 -79 -52 -1 -4 -12 -18 -26 -32 -68 -68 -229 -55 -263
20 -8 16 -19 40 -26 54 -15 33 -50 37 -69 10z"/>
</g>
</svg>
